<svg width="27" height="20" viewBox="0 0 27 20" fill="none" xmlns="http://www.w3.org/2000/svg">
<path id="Vector" d="M8.82122 0C8.20104 -1.31087e-08 7.58693 0.122522 7.01395 0.360571C6.44098 0.598619 5.92036 0.947532 5.48183 1.38739C5.04329 1.82725 4.69543 2.34943 4.45809 2.92413C4.22076 3.49883 4.09861 4.11479 4.09861 4.73684C4.09861 5.35889 4.22076 5.97485 4.45809 6.54955C4.69543 7.12425 5.04329 7.64644 5.48183 8.0863C5.92036 8.52615 6.44098 8.87507 7.01395 9.11311C7.58693 9.35116 8.20104 9.47368 8.82122 9.47368C10.0737 9.47368 11.275 8.97463 12.1606 8.0863C13.0463 7.19797 13.5438 5.99313 13.5438 4.73684C13.5438 3.48055 13.0463 2.27572 12.1606 1.38739C11.275 0.499059 10.0737 2.64743e-08 8.82122 0ZM5.67281 4.73684C5.67281 4.32214 5.75425 3.9115 5.91247 3.52837C6.07069 3.14523 6.3026 2.79711 6.59496 2.50387C6.88732 2.21064 7.23439 1.97803 7.61638 1.81933C7.99836 1.66063 8.40777 1.57895 8.82122 1.57895C9.23468 1.57895 9.64408 1.66063 10.0261 1.81933C10.408 1.97803 10.7551 2.21064 11.0475 2.50387C11.3398 2.79711 11.5718 3.14523 11.73 3.52837C11.8882 3.9115 11.9696 4.32214 11.9696 4.73684C11.9696 5.57437 11.6379 6.37759 11.0475 6.96981C10.457 7.56203 9.65623 7.89474 8.82122 7.89474C7.98621 7.89474 7.1854 7.56203 6.59496 6.96981C6.00452 6.37759 5.67281 5.57437 5.67281 4.73684ZM19.8407 2.10526C18.8665 2.10526 17.9322 2.49342 17.2434 3.18434C16.5545 3.87527 16.1675 4.81236 16.1675 5.78947C16.1675 6.76659 16.5545 7.70368 17.2434 8.3946C17.9322 9.08553 18.8665 9.47368 19.8407 9.47368C20.8148 9.47368 21.7491 9.08553 22.438 8.3946C23.1268 7.70368 23.5138 6.76659 23.5138 5.78947C23.5138 4.81236 23.1268 3.87527 22.438 3.18434C21.7491 2.49342 20.8148 2.10526 19.8407 2.10526ZM17.7417 5.78947C17.7417 5.23112 17.9629 4.69564 18.3565 4.30083C18.7501 3.90601 19.284 3.68421 19.8407 3.68421C20.3973 3.68421 20.9312 3.90601 21.3248 4.30083C21.7185 4.69564 21.9396 5.23112 21.9396 5.78947C21.9396 6.34782 21.7185 6.88331 21.3248 7.27812C20.9312 7.67293 20.3973 7.89474 19.8407 7.89474C19.284 7.89474 18.7501 7.67293 18.3565 7.27812C17.9629 6.88331 17.7417 6.34782 17.7417 5.78947ZM0.950195 13.9474C0.950195 13.3192 1.19898 12.7168 1.64181 12.2726C2.08464 11.8285 2.68525 11.5789 3.3115 11.5789H14.3309C14.9572 11.5789 15.5578 11.8285 16.0006 12.2726C16.4435 12.7168 16.6922 13.3192 16.6922 13.9474V14.5063C16.6909 14.5915 16.6849 14.6765 16.6744 14.7611C16.6507 14.9782 16.6122 15.1934 16.559 15.4053C16.3854 16.0965 16.0761 16.746 15.6491 17.3158C14.5849 18.74 12.5552 20 8.82122 20C5.08721 20 3.05753 18.74 1.99337 17.3158C1.56671 16.7459 1.25773 16.0964 1.08453 15.4053C1.01601 15.1301 0.972103 14.8493 0.953344 14.5663C0.952036 14.5463 0.950986 14.5263 0.950195 14.5063V14.4758V13.9474ZM2.5244 14.4684V14.4874L2.53385 14.5926C2.54434 14.6916 2.56533 14.84 2.61151 15.0221C2.73387 15.509 2.95147 15.9666 3.25168 16.3684C3.95903 17.3126 5.47131 18.4211 8.82122 18.4211C12.1711 18.4211 13.6834 17.3126 14.3897 16.3684C14.757 15.8779 14.9396 15.3874 15.0299 15.0221C15.074 14.8467 15.1031 14.6678 15.117 14.4874L15.118 14.4684V13.9474C15.118 13.738 15.0351 13.5372 14.8875 13.3891C14.7399 13.2411 14.5397 13.1579 14.3309 13.1579H3.3115C3.10275 13.1579 2.90255 13.2411 2.75494 13.3891C2.60733 13.5372 2.5244 13.738 2.5244 13.9474V14.4684ZM16.7972 17.4947C17.6084 17.7442 18.6096 17.8947 19.8386 17.8947C22.7456 17.8947 24.3702 17.0568 25.2528 16.0463C25.6057 15.6464 25.8672 15.174 26.0189 14.6621C26.0788 14.4554 26.1172 14.2431 26.1333 14.0284L26.1354 13.9789V13.9474C26.1354 13.3192 25.8866 12.7168 25.4438 12.2726C25.0009 11.8285 24.4003 11.5789 23.7741 11.5789H16.7909C17.2044 12.0116 17.5066 12.5537 17.6494 13.1579H23.7751C23.9821 13.1579 24.1807 13.2396 24.328 13.3854C24.4753 13.5312 24.5595 13.7293 24.5622 13.9368C24.5529 14.0324 24.5346 14.1268 24.5077 14.2189C24.4199 14.5106 24.2694 14.7793 24.0669 15.0063C23.5726 15.5747 22.4433 16.3158 19.8386 16.3158C18.851 16.3158 18.0754 16.2095 17.4657 16.0453C17.304 16.5545 17.0794 17.0414 16.7972 17.4947Z" fill="black"/>
</svg>
