<svg width="21" height="21" viewBox="0 0 21 21" fill="none" xmlns="http://www.w3.org/2000/svg">
<path id="Vector" d="M20.7202 18.8126L17.0102 15.1326C18.4503 13.337 19.1477 11.0579 18.959 8.76391C18.7703 6.46991 17.7098 4.33539 15.9957 2.79925C14.2815 1.26312 12.044 0.44212 9.74308 0.50508C7.4422 0.56804 5.25288 1.51017 3.6253 3.13775C1.99772 4.76533 1.05559 6.95465 0.992629 9.25553C0.929668 11.5564 1.75066 13.794 3.2868 15.5081C4.82294 17.2223 6.95746 18.2827 9.25146 18.4714C11.5455 18.6601 13.8246 17.9627 15.6202 16.5226L19.3002 20.2026C19.3931 20.2963 19.5037 20.3707 19.6256 20.4215C19.7474 20.4723 19.8781 20.4984 20.0102 20.4984C20.1422 20.4984 20.2729 20.4723 20.3947 20.4215C20.5166 20.3707 20.6272 20.2963 20.7202 20.2026C20.9004 20.0161 21.0011 19.7669 21.0011 19.5076C21.0011 19.2483 20.9004 18.9991 20.7202 18.8126ZM10.0102 16.5226C8.62569 16.5226 7.27231 16.1121 6.12117 15.3429C4.97002 14.5737 4.07281 13.4805 3.543 12.2014C3.01319 10.9223 2.87456 9.51484 3.14466 8.15698C3.41476 6.79911 4.08144 5.55183 5.06041 4.57286C6.03938 3.59389 7.28666 2.92721 8.64453 2.65711C10.0024 2.38702 11.4099 2.52564 12.6889 3.05545C13.968 3.58527 15.0613 4.48247 15.8304 5.63362C16.5996 6.78476 17.0102 8.13814 17.0102 9.52261C17.0102 11.3791 16.2727 13.1596 14.9599 14.4724C13.6472 15.7851 11.8667 16.5226 10.0102 16.5226Z" fill="#0057B5"/>
</svg>
