<svg width="32" height="33" viewBox="0 0 32 33" fill="none" xmlns="http://www.w3.org/2000/svg">
<g id="carbon:favorite">
<path id="Vector" d="M20.2549 6.43998C20.9048 6.43941 21.5483 6.57258 22.1477 6.83166C22.7471 7.09075 23.2902 7.47054 23.7453 7.94878C24.683 8.92985 25.2086 10.2517 25.2086 11.6288C25.2086 13.0059 24.683 14.3277 23.7453 15.3088L14.4971 24.9596L5.24886 15.3088C4.31117 14.3277 3.78556 13.0059 3.78556 11.6288C3.78556 10.2517 4.31117 8.92985 5.24886 7.94878C5.70421 7.47088 6.24739 7.09129 6.84668 6.83217C7.44597 6.57304 8.08936 6.43958 8.73925 6.43958C9.38915 6.43958 10.0325 6.57304 10.6318 6.83217C11.2311 7.09129 11.7743 7.47088 12.2297 7.94878L14.4971 10.3408L16.7556 7.96718C17.2093 7.48324 17.753 7.09857 18.3543 6.83617C18.9555 6.57376 19.6019 6.43901 20.2549 6.43998ZM20.2549 4.59998C19.3672 4.5992 18.4883 4.78108 17.6698 5.13496C16.8512 5.48883 16.1094 6.00758 15.488 6.66078L14.4971 7.69118L13.5062 6.66078C12.8839 6.00876 12.142 5.49091 11.3236 5.13743C10.5051 4.78395 9.62664 4.60191 8.73925 4.60191C7.85187 4.60191 6.97336 4.78395 6.15494 5.13743C5.33652 5.49091 4.59456 6.00876 3.97232 6.66078C2.70638 7.98891 1.99707 9.77623 1.99707 11.638C1.99707 13.4997 2.70638 15.287 3.97232 16.6152L14.4971 27.6L25.0218 16.6152C26.2878 15.287 26.9971 13.4997 26.9971 11.638C26.9971 9.77623 26.2878 7.98891 25.0218 6.66078C24.3997 6.00841 23.6578 5.49021 22.8394 5.13639C22.021 4.78258 21.1424 4.60023 20.2549 4.59998Z" fill="#DE0000"/>
</g>
</svg>
