<svg width="20" height="17" viewBox="0 0 20 17" fill="none" xmlns="http://www.w3.org/2000/svg">
<path id="Vector" d="M14.6063 1.36C15.1262 1.35958 15.641 1.45801 16.1205 1.64951C16.6 1.84101 17.0345 2.12172 17.3986 2.4752C18.1487 3.20034 18.5692 4.17735 18.5692 5.1952C18.5692 6.21306 18.1487 7.19006 17.3986 7.9152L10 15.0484L2.60143 7.9152C1.85128 7.19006 1.43079 6.21306 1.43079 5.1952C1.43079 4.17735 1.85128 3.20034 2.60143 2.4752C2.96571 2.12198 3.40026 1.84141 3.87969 1.64988C4.35912 1.45835 4.87383 1.35971 5.39375 1.35971C5.91366 1.35971 6.42837 1.45835 6.9078 1.64988C7.38724 1.84141 7.82178 2.12198 8.18606 2.4752L10 4.2432L11.8068 2.4888C12.1698 2.13111 12.6047 1.84679 13.0857 1.65284C13.5668 1.45888 14.0839 1.35929 14.6063 1.36ZM14.6063 1.82434e-06C13.8961 -0.000571226 13.193 0.133863 12.5382 0.395423C11.8833 0.656983 11.2899 1.0404 10.7927 1.5232L10 2.2848L9.2073 1.5232C8.7095 1.04127 8.11593 0.65852 7.4612 0.397251C6.80646 0.135983 6.10365 0.00142625 5.39375 0.00142625C4.68384 0.00142625 3.98103 0.135983 3.3263 0.397251C2.67156 0.65852 2.078 1.04127 1.5802 1.5232C0.56745 2.50487 0 3.82593 0 5.202C0 6.57808 0.56745 7.89914 1.5802 8.8808L10 17L18.4198 8.8808C19.4326 7.89914 20 6.57808 20 5.202C20 3.82593 19.4326 2.50487 18.4198 1.5232C17.9221 1.04102 17.3286 0.657999 16.6739 0.396483C16.0191 0.134968 15.3163 0.000187747 14.6063 1.82434e-06Z" fill="#DE0000"/>
</svg>
