<svg width="41" height="45" viewBox="0 0 41 45" fill="none" xmlns="http://www.w3.org/2000/svg">
<g id="tabler:send">
<circle id="Ellipse 67" cx="21" cy="22.6" r="20" fill="#DAAFF0"/>
<path id="Vector" d="M18.1968 26.1081L30.5128 14.1M18.1968 26.1081L22.1155 33.7497C22.1646 33.8542 22.2435 33.9428 22.3427 34.0049C22.442 34.067 22.5574 34.1 22.6753 34.1C22.7932 34.1 22.9087 34.067 23.0079 34.0049C23.1072 33.9428 23.186 33.8542 23.2351 33.7497L30.5128 14.1M18.1968 26.1081L10.3593 22.2874C10.2521 22.2395 10.1612 22.1626 10.0975 22.0658C10.0339 21.9691 10 21.8565 10 21.7415C10 21.6266 10.0339 21.514 10.0975 21.4173C10.1612 21.3205 10.2521 21.2436 10.3593 21.1957L30.5128 14.1" stroke="#9F4BCA" stroke-width="2" stroke-linecap="round" stroke-linejoin="round"/>
</g>
</svg>
