<svg width="25" height="24" viewBox="0 0 25 24" fill="none" xmlns="http://www.w3.org/2000/svg">
<g id="Group">
<g id="Clip path group">
<mask id="mask0_774_4587" style="mask-type:luminance" maskUnits="userSpaceOnUse" x="0" y="0" width="25" height="24">
<g id="akarIconsZoomFill0">
<path id="Vector" d="M0 0.5H24.5V23.5H0V0.5Z" fill="white"/>
</g>
</mask>
<g mask="url(#mask0_774_4587)">
<g id="Group_2">
<path id="Vector_2" fill-rule="evenodd" clip-rule="evenodd" d="M24.5 12C24.5 18.3509 19.0151 23.5 12.25 23.5C5.48494 23.5 0 18.3509 0 12C0 5.64913 5.48494 0.5 12.25 0.5C19.0151 0.5 24.5 5.64913 24.5 12ZM6.125 16.025H15.3125V9.7C15.3125 9.47347 15.265 9.24916 15.1726 9.03987C15.0803 8.83058 14.9449 8.64042 14.7743 8.48024C14.6037 8.32006 14.4011 8.193 14.1782 8.10631C13.9552 8.01962 13.7163 7.975 13.475 7.975H4.2875V14.3C4.2875 14.7575 4.48109 15.1963 4.82569 15.5198C4.99632 15.6799 5.19888 15.807 5.42182 15.8937C5.64475 15.9804 5.8837 16.025 6.125 16.025ZM16.5375 13.725L20.2125 16.025V7.975L16.5375 10.275V13.725Z" fill="#007AFF"/>
</g>
</g>
</g>
</g>
</svg>
