<svg width="26" height="26" viewBox="0 0 26 26" fill="none" xmlns="http://www.w3.org/2000/svg">
<path id="Vector" d="M7.79166 8.83333C7.79166 8.55706 7.90141 8.29211 8.09676 8.09676C8.29211 7.90141 8.55706 7.79166 8.83333 7.79166H17.1667C17.4429 7.79166 17.7079 7.90141 17.9032 8.09676C18.0986 8.29211 18.2083 8.55706 18.2083 8.83333C18.2083 9.1096 18.0986 9.37455 17.9032 9.5699C17.7079 9.76525 17.4429 9.875 17.1667 9.875H8.83333C8.55706 9.875 8.29211 9.76525 8.09676 9.5699C7.90141 9.37455 7.79166 9.1096 7.79166 8.83333ZM8.83333 14.0417H17.1667C17.4429 14.0417 17.7079 13.9319 17.9032 13.7366C18.0986 13.5412 18.2083 13.2763 18.2083 13C18.2083 12.7237 18.0986 12.4588 17.9032 12.2634C17.7079 12.0681 17.4429 11.9583 17.1667 11.9583H8.83333C8.55706 11.9583 8.29211 12.0681 8.09676 12.2634C7.90141 12.4588 7.79166 12.7237 7.79166 13C7.79166 13.2763 7.90141 13.5412 8.09676 13.7366C8.29211 13.9319 8.55706 14.0417 8.83333 14.0417ZM13 16.125H8.83333C8.55706 16.125 8.29211 16.2347 8.09676 16.4301C7.90141 16.6254 7.79166 16.8904 7.79166 17.1667C7.79166 17.4429 7.90141 17.7079 8.09676 17.9032C8.29211 18.0986 8.55706 18.2083 8.83333 18.2083H13C13.2763 18.2083 13.5412 18.0986 13.7366 17.9032C13.9319 17.7079 14.0417 17.4429 14.0417 17.1667C14.0417 16.8904 13.9319 16.6254 13.7366 16.4301C13.5412 16.2347 13.2763 16.125 13 16.125ZM25.5 2.58333V16.7357C25.5009 17.0094 25.4473 17.2805 25.3425 17.5333C25.2377 17.7861 25.0836 18.0156 24.8893 18.2083L18.2083 24.8893C18.0156 25.0836 17.7861 25.2377 17.5333 25.3425C17.2805 25.4473 17.0094 25.5009 16.7357 25.5H2.58333C2.0308 25.5 1.50089 25.2805 1.11019 24.8898C0.719493 24.4991 0.5 23.9692 0.5 23.4167V2.58333C0.5 2.0308 0.719493 1.50089 1.11019 1.11019C1.50089 0.719493 2.0308 0.5 2.58333 0.5H23.4167C23.9692 0.5 24.4991 0.719493 24.8898 1.11019C25.2805 1.50089 25.5 2.0308 25.5 2.58333ZM2.58333 23.4167H16.125V17.1667C16.125 16.8904 16.2347 16.6254 16.4301 16.4301C16.6254 16.2347 16.8904 16.125 17.1667 16.125H23.4167V2.58333H2.58333V23.4167ZM18.2083 18.2083V21.9453L21.944 18.2083H18.2083Z" fill="#F9F9F9"/>
</svg>
