<svg width="41" height="40" viewBox="0 0 41 40" fill="none" xmlns="http://www.w3.org/2000/svg">
<g id="streamline:download-circle">
<g id="Group">
<path id="Vector" d="M13.3574 22.8571L20.5003 30M20.5003 30L27.6431 22.8571M20.5003 30V10" stroke="#007AFF" stroke-linecap="round" stroke-linejoin="round"/>
<path id="Vector_2" d="M20.5001 38.5716C25.4256 38.5716 30.1493 36.6149 33.6321 33.1321C37.1149 29.6493 39.0716 24.9256 39.0716 20.0001C39.0716 15.0747 37.1149 10.351 33.6321 6.86816C30.1493 3.38534 25.4256 1.42871 20.5001 1.42871C15.5747 1.42871 10.851 3.38534 7.36816 6.86816C3.88534 10.351 1.92871 15.0747 1.92871 20.0001C1.92871 24.9256 3.88534 29.6493 7.36816 33.1321C10.851 36.6149 15.5747 38.5716 20.5001 38.5716Z" stroke="#007AFF" stroke-linecap="round" stroke-linejoin="round"/>
</g>
</g>
</svg>
