<svg width="21" height="21" viewBox="0 0 21 21" fill="none" xmlns="http://www.w3.org/2000/svg">
<path id="Vector" d="M13.8649 5.18164L6.28127 12.1524C6.06132 12.3476 5.88587 12.5812 5.76518 12.8395C5.64448 13.0977 5.58095 13.3755 5.57829 13.6566C5.57563 13.9377 5.6339 14.2164 5.7497 14.4766C5.86549 14.7367 6.03649 14.973 6.25273 15.1718C6.46896 15.3706 6.72609 15.5277 7.00911 15.6342C7.29214 15.7406 7.59539 15.7942 7.90118 15.7917C8.20696 15.7893 8.50916 15.7309 8.79013 15.62C9.0711 15.509 9.32521 15.3477 9.53766 15.1456L16.9232 8.17484C17.7623 7.37636 18.2265 6.30693 18.216 5.19688C18.2055 4.08682 17.7211 3.02497 16.8671 2.24001C16.0132 1.45506 14.8579 1.00981 13.6503 1.00016C12.4426 0.990514 11.2792 1.41724 10.4105 2.18844L3.02373 9.15811C1.72796 10.3492 1 11.9646 1 13.649C1 15.3334 1.72796 16.9488 3.02373 18.1398C4.31951 19.3309 6.07696 20 7.90946 20C9.74197 20 11.4994 19.3309 12.7952 18.1398L20 11.5321" stroke="#006FE8" stroke-width="2" stroke-linecap="round" stroke-linejoin="round"/>
</svg>
