<svg width="38" height="20" viewBox="0 0 38 20" fill="none" xmlns="http://www.w3.org/2000/svg">
<path id="Vector" d="M9.07201 12.5201C9.45587 12.5156 9.8391 12.5343 10.2196 12.5759C8.82313 14.2037 8.06261 16.1956 8.06039 18.1781C8.05678 18.4045 8.06944 18.6302 8.098 18.8535H2.40492C2.40239 18.8534 2.3985 18.8532 2.39335 18.8528C2.37436 18.8514 2.34071 18.8482 2.2977 18.8411C2.20694 18.8259 2.10122 18.7975 2.0076 18.7507C1.91789 18.7059 1.85861 18.6543 1.81952 18.5957C1.7846 18.5433 1.72705 18.4285 1.72705 18.1868C1.72705 17.5928 2.05796 16.1568 3.15297 14.8793C4.20706 13.6495 6.00974 12.5202 9.06038 12.5202V12.5202L9.07201 12.5201ZM2.40827 18.8536C2.40823 18.8536 2.40818 18.8536 2.4081 18.8536C2.40831 18.8536 2.40838 18.8536 2.40832 18.8536H2.40827ZM27.7808 12.7224C28.1613 12.6808 28.5445 12.6621 28.9284 12.6666V12.6667H28.94C31.9907 12.6667 33.7934 13.796 34.8475 15.0258C35.9425 16.3033 36.2734 17.7393 36.2734 18.3333C36.2734 18.575 36.2158 18.6898 36.1809 18.7422C36.1418 18.8008 36.0825 18.8524 35.9928 18.8972C35.8992 18.944 35.7935 18.9724 35.7027 18.9876C35.6597 18.9947 35.6261 18.9979 35.6071 18.9993C35.6019 18.9997 35.598 18.9999 35.5955 19H29.9024C29.931 18.7767 29.9436 18.551 29.94 18.3246C29.9378 16.3421 29.1773 14.3502 27.7808 12.7224ZM10.4662 7.926C9.87236 8.51987 9.0669 8.8535 8.22705 8.8535C7.3872 8.8535 6.58175 8.51987 5.98788 7.926C5.39401 7.33214 5.06038 6.52668 5.06038 5.68683C5.06038 4.84698 5.39401 4.04152 5.98788 3.44766C6.58175 2.85379 7.3872 2.52016 8.22705 2.52016C9.0669 2.52016 9.87236 2.85379 10.4662 3.44766C11.0601 4.04152 11.3937 4.84698 11.3937 5.68683C11.3937 6.52668 11.0601 7.33214 10.4662 7.926ZM29.7734 8.99999C28.9335 8.99999 28.1281 8.66636 27.5342 8.0725C26.9403 7.47864 26.6067 6.67318 26.6067 5.83332C26.6067 4.99347 26.9403 4.18801 27.5342 3.59415C28.1281 3.00029 28.9335 2.66666 29.7734 2.66666C30.6132 2.66666 31.4187 3.00029 32.0125 3.59415C32.6064 4.18802 32.94 4.99347 32.94 5.83332C32.94 6.67317 32.6064 7.47863 32.0125 8.0725C31.4187 8.66636 30.6132 8.99999 29.7734 8.99999ZM12.2845 19C12.282 18.9999 12.2781 18.9997 12.2729 18.9993C12.2539 18.9979 12.2203 18.9947 12.1773 18.9876C12.0865 18.9724 11.9808 18.9441 11.8872 18.8972C11.7975 18.8524 11.7382 18.8008 11.6991 18.7422C11.6642 18.6898 11.6066 18.575 11.6066 18.3333C11.6066 17.7393 11.9375 16.3033 13.0325 15.0258C14.0866 13.796 15.8893 12.6667 18.94 12.6667C21.9906 12.6667 23.7933 13.796 24.8474 15.0258C25.9424 16.3033 26.2733 17.7393 26.2733 18.3333C26.2733 18.575 26.2157 18.6898 26.1808 18.7422C26.1417 18.8008 26.0824 18.8524 25.9927 18.8972C25.8991 18.9441 25.7934 18.9724 25.7026 18.9876C25.6596 18.9947 25.626 18.9979 25.607 18.9993C25.6018 18.9997 25.5979 18.9999 25.5954 19H12.2845ZM21.7684 7.82843C21.0182 8.57857 20.0008 9 18.94 9C17.8791 9 16.8617 8.57857 16.1115 7.82843C15.3614 7.07828 14.94 6.06087 14.94 5C14.94 3.93914 15.3614 2.92172 16.1115 2.17157C16.8617 1.42143 17.8791 1 18.94 1C20.0008 1 21.0182 1.42143 21.7684 2.17157C22.5185 2.92172 22.94 3.93914 22.94 5C22.94 6.06087 22.5185 7.07828 21.7684 7.82843Z" stroke="#F9F9F9" stroke-width="2"/>
</svg>
