<svg width="32" height="26" viewBox="0 0 32 26" fill="none" xmlns="http://www.w3.org/2000/svg">
<g id="tdesign:notification-filled" clip-path="url(#clip0_622_266)">
<path id="Vector" d="M25.4322 20.4322H6.5V18.2462L8.65785 15.0095L8.8258 14.7576V14.4548V8.64029C8.8258 7.70261 9.01048 6.77412 9.36932 5.90782C9.72815 5.04152 10.2541 4.25438 10.9171 3.59134C11.5802 2.9283 12.3673 2.40235 13.2336 2.04352C14.0999 1.68469 15.0284 1.5 15.9661 1.5C16.9038 1.5 17.8322 1.68469 18.6985 2.04352C19.5648 2.40235 20.352 2.9283 21.015 3.59134C21.6781 4.25438 22.204 5.04152 22.5628 5.90782C22.9217 6.77411 23.1064 7.70261 23.1064 8.64029V14.4548V14.7576L23.2743 15.0095L25.4322 18.2462V20.4322ZM13.7885 23.5951H18.1437C18.0374 23.7018 17.9229 23.8011 17.801 23.8919C17.2707 24.2867 16.6272 24.5 15.9661 24.5C15.305 24.5 14.6615 24.2867 14.1312 23.8919C14.0092 23.8011 13.8948 23.7018 13.7885 23.5951Z" stroke="#F9F9F9" stroke-width="2"/>
</g>
<defs>
<clipPath id="clip0_622_266">
<rect width="31" height="25" fill="white" transform="translate(0.5 0.5)"/>
</clipPath>
</defs>
</svg>
