<svg width="22" height="26" viewBox="0 0 22 26" fill="none" xmlns="http://www.w3.org/2000/svg">
<path id="Vector" d="M2.67544 24.5C2.67117 24.4998 2.66199 24.4994 2.64856 24.4985C2.61818 24.4963 2.56825 24.4915 2.50571 24.4811C2.37589 24.4594 2.21808 24.418 2.07238 24.3452C1.93059 24.2743 1.81922 24.1836 1.74107 24.0664C1.66708 23.9554 1.5835 23.7625 1.5835 23.4167C1.5835 22.6143 2.01857 20.7616 3.42609 19.1195C4.79267 17.5252 7.11618 16.0833 11.0002 16.0833C14.8841 16.0833 17.2077 17.5252 18.5742 19.1195C19.9817 20.7616 20.4168 22.6143 20.4168 23.4167C20.4168 23.7625 20.3332 23.9554 20.2593 24.0664C20.1811 24.1836 20.0697 24.2743 19.9279 24.3452C19.7822 24.418 19.6244 24.4594 19.4946 24.4811C19.4321 24.4915 19.3821 24.4963 19.3518 24.4985C19.3383 24.4994 19.3292 24.4998 19.3249 24.5H2.67544ZM14.7125 10.4623C13.7279 11.4469 12.3925 12 11.0002 12C9.60777 12 8.27242 11.4469 7.28785 10.4623C6.30328 9.47775 5.75016 8.14239 5.75016 6.75C5.75016 5.35761 6.30328 4.02226 7.28785 3.03769C8.27242 2.05312 9.60777 1.5 11.0002 1.5C12.3925 1.5 13.7279 2.05312 14.7125 3.03769C15.697 4.02225 16.2502 5.35761 16.2502 6.75C16.2502 8.14239 15.697 9.47775 14.7125 10.4623Z" stroke="#F9F9F9" stroke-width="2"/>
</svg>
