<svg width="21" height="21" viewBox="0 0 21 21" fill="none" xmlns="http://www.w3.org/2000/svg">
<path id="Vector" d="M12.3178 19.6258L20.3094 2.40413C20.3923 2.22646 20.4212 2.02832 20.3924 1.83437C20.3636 1.64042 20.2785 1.45921 20.1475 1.31328C20.0165 1.16735 19.8456 1.06313 19.6559 1.0136C19.4661 0.964066 19.266 0.971399 19.0805 1.03469L1.09728 7.1222C0.940804 7.17407 0.799703 7.26407 0.686706 7.3841C0.573708 7.50412 0.492368 7.65039 0.450025 7.8097C0.407682 7.96902 0.405667 8.13637 0.444163 8.29666C0.482658 8.45695 0.560453 8.60513 0.670529 8.72784L3.74204 12.1656C4.07598 12.5377 4.63855 12.6106 5.05076 12.3213L16.8295 4.29077L7.56869 15.1272C7.24331 15.5133 7.25512 16.0804 7.58906 16.4525L10.6755 19.8769C11.1497 20.4053 12.0202 20.2825 12.3178 19.6258Z" fill="#007AFF"/>
</svg>
