<svg width="41" height="35" viewBox="0 0 41 35" fill="none" xmlns="http://www.w3.org/2000/svg">
<rect x="1.5" y="1" width="38" height="33" rx="9" stroke="#007AFF" stroke-width="2"/>
<path d="M25.1063 10.36C25.6262 10.3596 26.141 10.458 26.6205 10.6495C27.1 10.841 27.5345 11.1217 27.8986 11.4752C28.6487 12.2003 29.0692 13.1773 29.0692 14.1952C29.0692 15.2131 28.6487 16.1901 27.8986 16.9152L20.5 24.0484L13.1014 16.9152C12.3513 16.1901 11.9308 15.2131 11.9308 14.1952C11.9308 13.1773 12.3513 12.2003 13.1014 11.4752C13.4657 11.122 13.9003 10.8414 14.3797 10.6499C14.8591 10.4584 15.3738 10.3597 15.8937 10.3597C16.4137 10.3597 16.9284 10.4584 17.4078 10.6499C17.8872 10.8414 18.3218 11.122 18.6861 11.4752L20.5 13.2432L22.3068 11.4888C22.6698 11.1311 23.1047 10.8468 23.5857 10.6528C24.0668 10.4589 24.5839 10.3593 25.1063 10.36ZM25.1063 9C24.3961 8.99943 23.693 9.13386 23.0382 9.39542C22.3833 9.65698 21.7899 10.0404 21.2927 10.5232L20.5 11.2848L19.7073 10.5232C19.2095 10.0413 18.6159 9.65852 17.9612 9.39725C17.3065 9.13598 16.6037 9.00143 15.8937 9.00143C15.1838 9.00143 14.481 9.13598 13.8263 9.39725C13.1716 9.65852 12.578 10.0413 12.0802 10.5232C11.0674 11.5049 10.5 12.8259 10.5 14.202C10.5 15.5781 11.0674 16.8991 12.0802 17.8808L20.5 26L28.9198 17.8808C29.9326 16.8991 30.5 15.5781 30.5 14.202C30.5 12.8259 29.9326 11.5049 28.9198 10.5232C28.4221 10.041 27.8286 9.658 27.1739 9.39648C26.5191 9.13497 25.8163 9.00019 25.1063 9Z" fill="#DE0000"/>
</svg>
