<svg width="25" height="29" viewBox="0 0 25 29" fill="none" xmlns="http://www.w3.org/2000/svg">
<path id="Vector" d="M7.91679 25.8669L8.12559 25.75L8.12773 25.7488L8.13434 25.7451L8.14691 25.738L8.14771 25.7376L8.57201 25.5H8.14771C8.10278 25.4998 8.05857 25.5109 8.01939 25.532C7.98022 25.5532 7.9474 25.5837 7.92415 25.6206C7.9009 25.6576 7.888 25.6997 7.88671 25.7428C7.88542 25.786 7.89578 25.8287 7.91679 25.8669ZM7.91679 25.8669L8.12901 25.7501L8.12943 25.7498L8.1352 25.7467L8.1469 25.7402L8.14771 25.7398L8.58333 25.5H8.84426C8.87442 25.5864 8.88907 25.6788 8.88626 25.7727C8.88216 25.9099 8.84111 26.0411 8.77046 26.1533C8.7 26.2652 8.6036 26.3531 8.49425 26.4121C8.43904 26.4419 8.38097 26.4641 8.32148 26.4788C8.26122 26.4008 8.20326 26.321 8.14771 26.2396C8.14689 26.2384 8.14606 26.2372 8.14524 26.236C8.06383 26.1164 7.98758 25.9933 7.91679 25.8669ZM23.3964 20.1135L23.3973 20.1145C23.4306 20.1532 23.4833 20.2146 23.5385 20.2792C23.6025 20.3538 23.6699 20.4325 23.7149 20.4846C23.868 20.6623 23.9612 20.8738 23.9891 21.0929C24.017 21.312 23.9794 21.5355 23.878 21.7384L23.8772 21.7399C23.6578 22.1805 23.1738 22.4981 22.5483 22.4981H2.45525C1.82229 22.4981 1.33569 22.1777 1.11869 21.7384L1.11723 21.7354C1.01625 21.5327 0.979012 21.3094 1.00715 21.0907C1.03531 20.8718 1.12861 20.6607 1.28164 20.4834L1.28167 20.4834L1.28768 20.4763C1.3791 20.3683 1.46901 20.2642 1.56094 20.1577C1.57385 20.1427 1.5868 20.1277 1.5998 20.1126L1.60002 20.1124L1.63309 20.074C2.33111 19.2647 3.00574 18.4824 3.46388 17.2682C3.9219 16.0543 4.13957 14.4847 4.13957 12.0844C4.13957 10.0843 4.55595 8.52073 5.33126 7.3102C6.10234 6.10628 7.28157 5.1683 8.95721 4.50553L9.01123 4.48416L9.06242 4.45667C9.17818 4.39453 9.28419 4.31323 9.37529 4.21501L9.52955 4.04868L9.59694 3.83208C10.0484 2.38103 11.2438 1.5 12.4982 1.5C13.7526 1.5 14.9485 2.38096 15.4 3.83368L15.4644 4.04059L15.6085 4.20233C15.7029 4.30819 15.8144 4.39521 15.9369 4.46068L15.9874 4.48767L16.0407 4.50873C17.481 5.07806 18.5181 5.82455 19.2719 6.77154L19.2725 6.77225C20.2929 8.05172 20.8575 9.81271 20.8575 12.0863C20.8575 14.4859 21.0755 16.0549 21.5337 17.2688C21.9913 18.481 22.6645 19.2631 23.3605 20.0718L23.3964 20.1135ZM9.72132 26.5H15.2757C15.0882 26.6572 14.8853 26.7991 14.6689 26.9235C14.0155 27.299 13.2653 27.4993 12.4983 27.5C11.7314 27.4992 10.9813 27.2989 10.3279 26.9234C10.1116 26.799 9.90876 26.6572 9.72132 26.5Z" stroke="#00438C" stroke-width="2"/>
</svg>
