<svg width="45" height="27" viewBox="0 0 45 27" fill="none" xmlns="http://www.w3.org/2000/svg">
<path id="Vector" d="M32.3418 0.5H12.6543C5.67578 0.5 -0.00195312 6.33194 -0.00195312 13.5C-0.00195312 20.6681 5.67578 26.5 12.6543 26.5H32.3418C39.3203 26.5 44.998 20.6681 44.998 13.5C44.998 6.33194 39.3203 0.5 32.3418 0.5ZM32.3418 23.6111C30.3949 23.6111 28.4917 23.0181 26.8729 21.9071C25.2541 20.7961 23.9924 19.2169 23.2474 17.3694C22.5023 15.5218 22.3074 13.4888 22.6872 11.5274C23.067 9.56606 24.0045 7.76443 25.3812 6.35037C26.7579 4.9363 28.5119 3.97331 30.4214 3.58317C32.3309 3.19303 34.3101 3.39327 36.1088 4.15855C37.9075 4.92384 39.4449 6.2198 40.5266 7.88257C41.6082 9.54533 42.1855 11.5002 42.1855 13.5C42.1828 16.1808 41.1448 18.7509 39.2993 20.6465C37.4538 22.542 34.9517 23.6082 32.3418 23.6111Z" fill="#00438C"/>
</svg>
