<svg width="25" height="24" viewBox="0 0 25 24" fill="none" xmlns="http://www.w3.org/2000/svg">
<path fill-rule="evenodd" clip-rule="evenodd" d="M25 12C25 18.3509 19.5151 23.5 12.75 23.5C5.98494 23.5 0.5 18.3509 0.5 12C0.5 5.64913 5.98494 0.5 12.75 0.5C19.5151 0.5 25 5.64913 25 12ZM6.625 16.025H15.8125V9.7C15.8125 9.47347 15.765 9.24916 15.6726 9.03987C15.5803 8.83058 15.4449 8.64042 15.2743 8.48024C15.1037 8.32006 14.9011 8.193 14.6782 8.10631C14.4552 8.01962 14.2163 7.975 13.975 7.975H4.7875V14.3C4.7875 14.7575 4.98109 15.1963 5.32569 15.5198C5.49632 15.6799 5.69888 15.807 5.92182 15.8937C6.14475 15.9804 6.3837 16.025 6.625 16.025ZM17.0375 13.725L20.7125 16.025V7.975L17.0375 10.275V13.725Z" fill="#007AFF"/>
</svg>
